<?xml version="1.0" standalone="no"?>
<!DOCTYPE svg PUBLIC "-//W3C//DTD SVG 20010904//EN"
 "http://www.w3.org/TR/2001/REC-SVG-20010904/DTD/svg10.dtd">
<svg version="1.0" xmlns="http://www.w3.org/2000/svg"
 width="542.000000pt" height="542.000000pt" viewBox="0 0 542.000000 542.000000"
 preserveAspectRatio="xMidYMid meet">
<metadata>
Created by potrace 1.14, written by Peter Selinger 2001-2017
</metadata>
<g transform="translate(0.000000,542.000000) scale(0.100000,-0.100000)"
fill="#000000" stroke="none">
<path d="M2210 5045 l0 -45 -57 -1 c-32 0 -92 -1 -133 -2 l-75 -2 -1 -30 c-1
-16 -2 -36 -3 -42 -1 -9 -26 -13 -89 -13 l-88 0 -1 -41 c0 -22 -2 -42 -5 -44
-2 -2 -43 -5 -91 -6 l-88 -2 1 -26 c4 -63 7 -61 -89 -61 l-88 0 1 -42 1 -43
-46 -5 c-44 -5 -46 -6 -43 -36 3 -43 -5 -52 -51 -56 -39 -3 -40 -4 -40 -43 0
-37 -2 -40 -30 -42 -16 0 -37 -2 -45 -2 -12 -1 -16 -12 -15 -43 0 -43 0 -43
-38 -44 -46 -1 -48 -3 -51 -51 -2 -36 -4 -38 -36 -40 -19 0 -40 -1 -45 -2 -6
-1 -10 -20 -10 -43 l0 -43 -40 0 c-40 -1 -40 -1 -45 -45 -5 -45 -5 -45 -45
-45 l-40 0 -5 -45 -5 -45 -40 0 -40 0 -3 -87 c-2 -60 -7 -88 -15 -90 -7 0 -25
-1 -42 -2 l-30 -1 -3 -85 c-2 -46 -8 -87 -13 -91 -6 -3 -26 -4 -45 -2 l-34 3
0 -180 0 -180 -27 -1 c-16 -1 -36 -1 -45 0 -17 2 -18 -14 -18 -223 l0 -226
-44 0 -44 0 -1 -220 0 -220 44 0 45 0 0 -180 0 -180 45 0 45 0 0 -136 0 -136
45 4 45 3 0 -137 c0 -76 3 -137 8 -137 4 1 24 1 44 0 36 -1 37 -2 40 -43 3
-40 5 -43 33 -44 17 -1 35 -2 41 -3 7 -1 12 -32 13 -83 1 -45 5 -85 7 -88 3
-3 22 -5 42 -5 39 -1 38 0 41 -66 1 -24 5 -26 43 -25 43 1 43 1 44 -37 2 -46
6 -50 47 -53 17 -1 35 -2 39 -3 4 0 7 -16 6 -34 -2 -46 6 -55 46 -52 38 4 45
-5 42 -53 -2 -29 1 -32 28 -33 17 -1 35 -1 40 0 15 3 23 -18 21 -55 -1 -19 3
-34 9 -35 6 0 27 -2 46 -2 34 -2 35 -3 34 -44 l0 -43 88 0 c96 0 92 3 91 -68
0 -19 5 -22 38 -22 43 0 57 -17 53 -63 l-3 -27 90 0 89 0 1 -27 c1 -16 1 -36
0 -45 -2 -16 8 -18 88 -18 l91 0 1 -27 c1 -16 1 -36 0 -46 -2 -16 17 -17 268
-17 l271 0 0 -45 0 -45 398 2 397 3 3 43 3 42 135 0 134 0 0 45 0 45 91 0 c88
0 90 1 89 23 -6 69 -8 67 89 67 l89 0 0 33 c-1 58 -2 57 65 56 120 -2 113 -4
113 44 l-1 42 45 5 c44 5 44 5 45 45 0 42 -1 41 65 44 23 1 26 5 25 44 l0 42
82 1 c46 0 85 3 89 7 3 3 7 23 8 44 1 36 3 38 39 39 47 2 49 4 50 51 2 38 2
38 45 37 l42 0 1 60 c1 34 0 73 -1 87 -1 29 10 36 58 34 31 -2 32 -1 32 41 0
47 1 47 62 46 l27 -1 3 92 3 92 43 -3 42 -4 0 91 0 91 45 0 45 0 0 90 0 90 44
0 45 0 0 131 c1 72 3 134 5 138 3 4 22 6 44 4 l40 -2 0 578 0 577 -39 1 c-22
0 -42 3 -45 6 -3 2 -5 63 -5 136 l-1 131 -44 0 -43 0 -3 88 -3 87 -40 0 -40 0
-5 90 -5 89 -30 2 c-16 1 -36 2 -42 3 -8 1 -13 16 -13 41 0 22 -3 40 -7 41 -5
1 -21 2 -38 4 -16 1 -33 3 -37 4 -5 0 -8 40 -8 89 l0 87 -42 0 -43 0 -5 45
c-5 44 -5 44 -45 45 -40 0 -40 0 -41 40 0 40 0 40 -44 45 -43 5 -44 6 -46 43
-2 22 -4 40 -6 43 -2 2 -22 5 -44 6 -39 3 -39 4 -39 46 l0 42 -42 0 c-27 0
-44 5 -44 13 -1 6 -2 26 -3 42 l-1 30 -90 5 -90 5 0 40 0 40 -45 5 c-45 5 -45
5 -45 45 l0 40 -90 5 -89 5 1 43 1 43 -129 -2 c-72 0 -132 1 -134 3 -2 2 -5
22 -6 45 l-3 42 -70 0 c-119 -2 -112 -5 -108 45 l4 45 -581 0 -581 0 0 -44z
m268 -354 l-3 -46 -42 -3 -43 -3 0 -45 0 -44 -45 0 -45 0 0 -46 c0 -45 0 -46
-32 -44 -55 3 -57 2 -60 -42 l-3 -43 -70 -2 c-38 -1 -78 -2 -87 -2 -14 -1 -18
-10 -18 -41 l0 -40 90 0 90 0 0 -46 0 -46 45 4 45 3 0 -47 0 -48 45 0 45 0 0
-46 0 -46 43 4 42 3 3 -179 c2 -122 -1 -182 -8 -186 -7 -4 -27 -5 -46 -3 l-34
3 0 -225 0 -225 -37 -1 c-21 -1 -41 -1 -45 0 -4 0 -7 -25 -7 -57 1 -31 1 -92
0 -134 l-1 -78 -45 0 -45 0 0 -45 0 -45 -90 0 -90 0 0 -45 0 -45 -135 0 -135
0 0 -45 0 -45 -135 0 -135 0 0 45 0 45 -90 0 -90 0 0 44 0 45 -47 3 -48 3 3
43 c3 37 1 43 -15 42 -10 -1 -30 -2 -45 -1 -26 1 -28 4 -28 46 l0 45 -45 0
c-40 0 -45 3 -46 23 0 12 0 73 0 135 0 82 -3 112 -12 111 -7 -1 -27 -1 -44 0
l-33 1 0 225 0 225 46 0 c37 0 45 3 43 18 -1 9 -1 29 0 45 l1 27 135 0 135 0
0 45 0 45 90 0 90 0 0 45 c0 51 -7 48 118 45 56 -1 63 1 62 17 -8 72 -8 72 88
75 l87 3 2 38 c0 20 -2 37 -5 38 -33 4 -246 3 -253 -2 -6 -3 -9 -10 -8 -15 1
-5 1 -23 0 -40 l-1 -31 -80 1 c-45 1 -85 -1 -89 -4 -5 -3 -9 -23 -8 -45 l2
-39 -92 -1 -93 -1 0 93 0 93 45 0 45 0 0 45 0 45 90 0 90 0 0 45 0 45 45 0 45
0 0 45 0 45 45 0 45 0 0 44 0 44 63 1 c128 0 117 -5 117 46 l0 45 134 0 134 0
-3 38 c-1 20 -1 40 1 43 2 3 85 6 184 6 l181 0 -3 -46z m803 9 c1 -19 1 -38 0
-42 -1 -9 6 -10 57 -10 32 -1 32 -1 32 -49 l0 -48 -132 2 -133 2 -3 43 -3 42
-52 1 c-29 0 -88 1 -132 2 l-80 2 -3 33 c-2 19 -1 39 1 46 4 9 63 12 226 12
l221 0 1 -36z m540 -153 c1 -6 0 -27 -1 -44 -2 -33 -1 -33 44 -33 l46 0 0 -45
0 -45 90 0 90 0 0 -45 0 -45 45 0 c48 0 48 -1 45 -57 -1 -31 0 -33 32 -32 57
2 58 2 58 -46 l0 -45 45 0 c29 0 45 -4 46 -12 0 -7 2 -26 2 -43 2 -26 6 -30
32 -32 17 0 36 -2 43 -2 9 -1 12 -26 12 -92 l0 -91 43 4 42 3 3 -48 3 -47 45
0 44 0 0 -90 c0 -98 2 -96 -67 -90 -23 1 -23 0 -23 -134 l0 -136 -27 -1 c-16
-1 -36 -1 -45 0 -16 2 -18 -8 -18 -88 0 -66 -3 -91 -12 -92 -18 0 -354 0 -403
0 l-41 1 1 46 0 46 -45 -4 -46 -3 0 45 c1 45 1 45 -34 47 -19 0 -39 1 -45 2
-5 1 -9 21 -8 45 l2 45 -47 -2 -47 -2 2 93 c1 66 -2 92 -10 91 -7 -1 -28 -1
-48 0 -35 1 -35 2 -35 44 1 42 1 42 -36 42 -47 1 -52 7 -50 54 l3 38 -48 -1
-48 -2 0 91 0 90 -42 -1 -43 -1 0 43 c0 24 -3 44 -7 45 -5 0 -25 1 -47 2 l-39
2 1 170 c0 94 1 176 1 183 1 8 17 12 46 12 l45 0 0 45 0 45 46 0 c43 0 45 1
44 28 -5 65 -17 60 180 61 135 0 180 -2 181 -12z m-545 -617 c6 0 11 -12 11
-27 1 -63 1 -64 38 -61 19 1 38 -1 42 -6 4 -4 8 -44 8 -89 0 -91 -7 -82 71
-86 18 -1 20 -7 19 -46 l-2 -46 46 4 46 3 0 -46 c0 -48 -2 -46 65 -49 25 -1
25 -2 24 -90 l-1 -88 44 3 43 2 0 -48 0 -48 45 3 c39 2 45 -1 46 -19 3 -75 1
-71 47 -70 l42 1 1 -56 c1 -71 -2 -125 -7 -130 -3 -3 -22 -4 -43 -3 l-39 3 0
-118 c0 -65 -1 -126 -1 -135 -1 -14 -10 -18 -47 -18 -37 0 -45 -3 -43 -17 1
-10 1 -30 0 -45 l-1 -28 -89 0 -90 0 1 -27 c1 -68 25 -62 -269 -65 l-268 -3 1
-43 1 -43 -136 3 -136 3 -3 43 -3 42 -45 0 -44 0 0 44 0 45 -42 3 c-45 3 -44
2 -47 66 -1 19 -6 22 -46 22 l-45 0 0 45 0 45 -43 0 -44 0 1 183 1 182 43 0
c31 -1 42 3 42 15 1 8 2 107 3 220 l2 205 43 3 c35 3 42 7 43 25 0 12 1 73 1
135 0 76 4 112 12 113 6 0 46 1 89 1 l77 -1 0 44 0 44 58 3 c43 2 403 1 478
-2z m1440 -540 l-1 -90 46 0 46 0 -1 -216 c-1 -134 3 -218 9 -222 6 -4 22 -7
38 -8 15 -1 31 -2 35 -3 4 0 8 -81 7 -178 l0 -177 -35 -3 c-55 -6 -55 -6 -54
-84 1 -40 0 -78 -2 -84 -4 -9 -37 -12 -81 -7 -9 2 -13 27 -13 90 l0 88 -42 -1
-43 0 -2 210 c-1 116 -2 216 -2 223 -1 7 -17 12 -44 12 l-43 0 0 135 0 135 43
0 c49 0 45 -16 45 163 l0 107 48 0 47 0 -1 -90z m-3671 -488 c0 -30 4 -42 15
-43 8 -1 29 -2 45 -3 26 -1 30 -5 31 -31 2 -61 2 -60 46 -60 l43 0 -1 -42 c0
-48 -4 -46 86 -44 88 1 96 -3 95 -46 -1 -38 -1 -38 44 -43 l46 -5 -2 -42 -1
-43 44 0 44 0 1 -52 c1 -29 1 -111 1 -181 0 -125 1 -128 22 -126 71 5 66 19
66 -180 l0 -178 68 -1 c123 -1 112 3 112 -47 l0 -44 223 0 c122 0 243 0 270
-1 l47 0 0 -46 c0 -41 2 -45 23 -44 69 6 67 8 67 -89 l0 -90 28 1 c65 1 62 6
62 -90 l0 -89 43 1 42 1 3 -87 c2 -60 7 -88 15 -89 7 -1 26 -2 42 -3 l30 -1 3
-228 2 -227 -272 2 -273 3 0 40 c0 47 9 44 -150 47 l-120 3 1 43 2 42 -92 0
-91 0 1 44 1 45 -39 -1 c-21 0 -42 2 -45 5 -3 3 -5 24 -5 46 l1 40 -90 -2 -89
-2 0 46 c0 44 -2 46 -27 47 -70 0 -68 -1 -66 47 l2 45 -45 0 c-41 0 -44 2 -45
28 -1 15 0 35 1 45 1 16 -5 18 -40 16 -23 -2 -44 2 -48 8 -6 9 -7 111 -3 168
1 6 21 10 46 9 l46 -2 -3 39 c-1 21 1 41 5 45 3 3 44 6 90 6 l85 -1 -2 45 c-1
42 0 44 29 45 17 1 38 1 47 0 14 -2 17 6 15 39 -3 48 0 51 54 52 l40 0 -3 42
-3 41 -85 0 -85 0 -1 -38 c-2 -47 -6 -51 -48 -49 -38 1 -45 -8 -41 -56 2 -30
0 -32 -29 -33 -17 0 -58 -1 -91 -2 l-60 -2 1 -42 1 -43 -139 0 -138 0 0 91 0
91 -42 -4 -43 -3 -5 135 -5 135 -32 1 c-18 1 -37 2 -43 3 -6 1 -10 52 -10 131
0 129 -2 137 -34 131 -6 -1 -20 0 -32 3 l-22 6 1 267 2 268 43 3 c42 3 42 3
42 43 0 21 3 40 8 40 4 1 21 3 37 4 17 2 33 3 38 4 4 1 7 18 7 39 0 21 2 41 5
44 3 2 44 4 92 4 l88 -1 0 -43z m2778 -537 l-2 -45 45 0 c50 0 47 7 45 -111
l-1 -65 40 -1 c23 0 44 -4 47 -7 11 -11 9 -355 -2 -359 -5 -2 -27 -2 -48 -1
-33 1 -38 -1 -36 -20 0 -11 1 -73 0 -136 l-1 -115 -44 3 -44 4 1 -131 c0 -72
-2 -134 -5 -137 -3 -2 -23 -6 -44 -7 l-39 -2 -2 -120 c-1 -66 -2 -126 -3 -132
0 -10 -97 -13 -450 -13 l-450 0 0 91 0 91 -45 -4 -45 -3 0 92 0 93 -45 0 -45
0 0 90 0 90 -44 0 -43 0 -1 180 -1 180 45 0 44 0 0 90 0 90 45 0 45 0 0 90 0
90 45 0 45 0 0 45 0 45 226 0 226 0 -2 28 c-5 67 -28 62 273 62 l272 0 -2 -45z
m896 -142 c-1 -5 -1 -25 0 -45 l1 -37 43 2 42 2 0 -95 0 -95 -42 1 c-43 1 -43
0 -44 -35 0 -20 -1 -61 -2 -91 l-2 -54 -42 0 -43 0 0 -88 c0 -97 5 -90 -67
-91 -20 0 -23 -5 -23 -43 l0 -44 -45 0 -45 0 0 -90 0 -90 -43 0 -44 0 -1 -42
c-2 -49 -8 -54 -57 -52 l-36 2 3 -41 3 -42 -45 -5 c-44 -5 -45 -6 -47 -44 -1
-21 -4 -40 -6 -43 -3 -2 -23 -5 -46 -6 -41 -1 -42 -1 -39 -39 1 -21 -1 -40 -4
-43 -3 -3 -55 -6 -114 -6 -177 -1 -161 -5 -158 41 2 50 6 55 52 55 l37 0 1
115 c1 63 2 124 3 136 1 17 7 20 43 20 l43 -1 0 172 c0 94 2 174 6 177 3 3 23
7 45 8 l39 3 -1 133 c0 126 1 132 20 133 72 3 71 3 72 34 2 63 -3 60 91 60
l88 0 -3 43 c-2 47 -12 44 116 44 l62 0 0 44 0 44 95 0 c52 0 94 -3 94 -7z"/>
<path d="M1854 4281 c-2 -2 -4 -22 -4 -43 l0 -39 89 2 88 1 -1 33 c0 18 -4 37
-9 41 -7 8 -155 12 -163 5z"/>
</g>
</svg>
